<svg id="Layer_1" data-name="Layer 1" xmlns="http://www.w3.org/2000/svg" viewBox="0 0 66.25 48.55"><defs><style>.cls-1{font-size:22.36px;font-family:SignPainter-HouseScript, SignPainter;}.cls-1,.cls-3{fill:#ebd6c4;}.cls-2{letter-spacing:0em;}.cls-4{letter-spacing:-0.01em;}</style></defs><text class="cls-1" transform="translate(0 19)"><tspan class="cls-2">O</tspan><tspan x="11.94" y="0">ut</tspan></text><path class="cls-3" d="M30.48,28.23C30.1,29.76,29,31.58,27.63,32a2,2,0,0,1-2.27-.79c-.79-1-.52-2.61.29-4a4.19,4.19,0,0,1,2.87-2.35,1.23,1.23,0,0,1,1.22.62c.42.55,1,.68.85,2,0,.14,0,.27,0,.41s.22,0,.37,0,.12.09,0,.18A.78.78,0,0,1,30.48,28.23ZM29,27.78a2.25,2.25,0,0,1-.83-1.59,6.31,6.31,0,0,0-1.39,1.7c-.75,1.37-1,3-.56,3.42s1.61-.21,2.49-1.87A9.44,9.44,0,0,0,29.29,28,1.79,1.79,0,0,1,29,27.78Zm.61-1.6c-.09-.58-.45-.47-.54.05a1.48,1.48,0,0,0,.4,1.28A3.39,3.39,0,0,0,29.56,26.18Z" transform="translate(-7.31 -2.56)"/><path class="cls-3" d="M33.64,30.65c0,.19,0,.39,0,.61A6.15,6.15,0,0,0,35.48,29c.11-.22.29-.23.38,0a1.8,1.8,0,0,1-.18,1.08,4.32,4.32,0,0,1-2.17,1.87,11.68,11.68,0,0,1-1.94,4.91c-.62.75-1.07.83-1.61.36a2.64,2.64,0,0,1-.79-2.62A18.33,18.33,0,0,1,31,29.54C32,27.23,33.19,25,34.41,22.75L35,21.66a1.47,1.47,0,0,1,.57-.69.5.5,0,0,1,.21-.09,2.3,2.3,0,0,1,1.24.18c.19.07.64.22.67.47a3.93,3.93,0,0,0-1,0,1.54,1.54,0,0,0-.64.6c-.14.19-.28.39-.41.6-.48.76-1,2.16-2.11,4.23-.06.12-.79,1.57-.84,1.56C33.39,28.77,33.66,29.46,33.64,30.65ZM30.16,36.5c.4.53,1.75-2,2.34-4.43a1.28,1.28,0,0,1-1.1-.72C30.39,33.75,29.75,36,30.16,36.5Zm2.61-6.25c0-.67-.16-1.23-.28-1.17s-.35,1-.37,1.44c0,.58.15,1,.49,1A7.44,7.44,0,0,0,32.77,30.25Z" transform="translate(-7.31 -2.56)"/><text class="cls-1" transform="translate(27.9 37.62)"><tspan class="cls-4">S</tspan><tspan x="9.61" y="0">ight</tspan></text></svg>