<svg id="Layer_1" data-name="Layer 1" xmlns="http://www.w3.org/2000/svg" viewBox="0 0 66.25 48.55"><defs><style>.cls-1{font-size:22.36px;font-family:SignPainter-HouseScript, SignPainter;}.cls-1,.cls-3{fill:#e5e2dd;}.cls-2{letter-spacing:0em;}.cls-4{letter-spacing:-0.01em;}</style></defs><text class="cls-1" transform="translate(0 19)"><tspan class="cls-2">O</tspan><tspan x="11.94" y="0">ut</tspan></text><path class="cls-3" d="M24.44,27c-.38,1.54-1.52,3.36-2.85,3.81a2,2,0,0,1-2.27-.8c-.8-1-.52-2.61.29-4a4.14,4.14,0,0,1,2.86-2.34,1.22,1.22,0,0,1,1.23.61c.41.56.95.68.85,2,0,.14,0,.27,0,.42s.22,0,.36,0,.13.09.05.18A.69.69,0,0,1,24.44,27Zm-1.53-.45A2.21,2.21,0,0,1,22.08,25a6.26,6.26,0,0,0-1.39,1.69c-.76,1.37-1,3-.56,3.43s1.6-.22,2.49-1.88a10,10,0,0,0,.63-1.44A1.11,1.11,0,0,1,22.91,26.53Zm.61-1.6c-.09-.58-.45-.47-.54.05a1.5,1.5,0,0,0,.39,1.28A3.43,3.43,0,0,0,23.52,24.93Z" transform="translate(-1.27 -1.31)"/><path class="cls-3" d="M27.59,29.4c0,.2,0,.4,0,.61a6.23,6.23,0,0,0,1.87-2.29c.11-.21.29-.23.38,0a1.8,1.8,0,0,1-.18,1.08,4.3,4.3,0,0,1-2.16,1.88,11.64,11.64,0,0,1-1.95,4.9c-.61.76-1.06.83-1.6.36a2.63,2.63,0,0,1-.8-2.61,18,18,0,0,1,1.8-5.06c1-2.31,2.22-4.56,3.44-6.79.2-.36.38-.73.57-1.09a1.52,1.52,0,0,1,.57-.68.88.88,0,0,1,.22-.1,2.18,2.18,0,0,1,1.23.19c.2.07.65.22.68.47a3.89,3.89,0,0,0-1,0,1.43,1.43,0,0,0-.64.6c-.14.2-.29.39-.42.6-.48.76-1,2.16-2.11,4.24-.06.11-.78,1.56-.83,1.55C27.34,27.52,27.61,28.21,27.59,29.4Zm-3.48,5.86c.4.52,1.75-2,2.35-4.44a1.26,1.26,0,0,1-1.1-.72C24.35,32.5,23.7,34.73,24.11,35.26ZM26.73,29c0-.66-.16-1.22-.29-1.17s-.34,1-.36,1.44c0,.58.14,1,.49,1A8.39,8.39,0,0,0,26.73,29Z" transform="translate(-1.27 -1.31)"/><text class="cls-1" transform="translate(27.9 37.62)"><tspan class="cls-4">S</tspan><tspan x="9.61" y="0">ight</tspan></text></svg>